<svg xmlns="http://www.w3.org/2000/svg" viewBox="0 0 480.857 480.857"><path d="M428.593 141.45a24.306 24.306 0 00-12.152-17.064 22.254 22.254 0 00-19.736-1.776c0-.512.152-1 .152-1.52.113-13.139-10.446-23.883-23.586-23.997a23.791 23.791 0 00-8.566 1.517c0-.512.152-1 .152-1.52 0-13.255-10.745-24-24-24 0-13.255-10.745-24-24-24-.52 0-1.008.12-1.52.152a22.024 22.024 0 00-.384-16.992 24.728 24.728 0 00-20-15.072 23.831 23.831 0 00-19.616 7.648c-4.493-12.442-18.221-18.886-30.663-14.394a23.952 23.952 0 00-15.817 22.658c.022-13.233-10.687-23.978-23.919-24.001a23.962 23.962 0 00-20.321 11.201 23.3 23.3 0 00-17.328-2.52 24.313 24.313 0 00-18.032 18.936 23.8 23.8 0 006 20.52 23.878 23.878 0 00-18.6 11.032 23.336 23.336 0 00-19.536-1.88 24.12 24.12 0 00-14.824 14.632 23.635 23.635 0 00.32 17.016 23.935 23.935 0 00-17.76 23.072c0 .52.12 1.008.152 1.52a22.25 22.25 0 00-19.688 1.752 24.327 24.327 0 00-12.192 17.088 23.898 23.898 0 0011.296 24.08l4.432 3.568h28v31.32h280V169.09h36l-1.12-1.12c11.456-3.387 18.654-14.71 16.856-26.52z" fill="#fdb62f"/><path d="M120.857 472.426L51.393 198.074c-4.63-20.053 7.872-40.062 27.925-44.693a37.228 37.228 0 018.387-.955h.352c18.752-.003 34.585 13.928 36.968 32.528l43.832 287.472h-48z" fill="#de0418"/><path d="M168.857 472.426l-42.616-277.992c-2.62-20.413 11.804-39.085 32.217-41.705a37.188 37.188 0 014.751-.303h1.328c20.211-.002 36.74 16.107 37.256 36.312l15.064 283.688h-48z" fill="#fce9cc"/><path d="M201.841 190.65l15.016 281.776h48l13.992-280.8c1.069-20.553-14.725-38.08-35.278-39.15a37.048 37.048 0 00-1.914-.05h-2.536c-20.58-.016-37.277 16.655-37.292 37.236 0 .329.004.658.012.988z" fill="#de0418"/><path d="M279.041 187.786l-14.184 284.64h48l41.392-277.064c3.133-20.341-10.817-39.369-31.158-42.502a37.297 37.297 0 00-5.674-.434h-1.16c-19.84-.001-36.202 15.545-37.216 35.36z" fill="#fce9cc"/><path d="M392.857 152.426c20.58 0 37.264 16.684 37.264 37.264a37.24 37.24 0 01-1.168 9.256l-68.096 273.48h-48l43.136-288.4c2.798-18.192 18.458-31.617 36.864-31.6z" fill="#de0418"/><path d="M136.857 272.426h208v96h-208v-96zm-56-240c.052-13.211-10.616-23.962-23.826-24.014a23.92 23.92 0 00-21.19 12.645 23.686 23.686 0 00-2.984-.296c-13.255 0-24 10.745-24 24s10.745 24 24 24a23.812 23.812 0 003.328-.336c6.501 11.49 21.086 15.534 32.576 9.033 11.49-6.501 15.534-21.086 9.033-32.576a25.765 25.765 0 00-.265-.456 23.76 23.76 0 003.328-12zm392 16c.052-13.211-10.616-23.962-23.826-24.013a23.92 23.92 0 00-21.19 12.645 23.686 23.686 0 00-2.984-.296c-13.255 0-24 10.745-24 24s10.745 24 24 24a23.812 23.812 0 003.328-.336c6.501 11.49 21.086 15.534 32.576 9.033s15.534-21.086 9.033-32.576a30.039 30.039 0 00-.265-.457 23.76 23.76 0 003.328-12z" fill="#fdb62f"/><path d="M436.505 140.282a32.298 32.298 0 00-16.072-22.832 31.347 31.347 0 00-16.584-4.344c-3.843-14.431-17.07-24.351-32-24a32.12 32.12 0 00-23.808-23.2 32.13 32.13 0 00-23.2-23.808 29.693 29.693 0 00-2.552-13.04 32.888 32.888 0 00-26.688-19.832 31.781 31.781 0 00-17.952 3.768c-11.029-13.713-31.087-15.889-44.8-4.86a31.876 31.876 0 00-4 3.836C217.227-1.274 197.07-2.59 183.826 9.032a32.593 32.593 0 00-1.625 1.529 30.907 30.907 0 00-16.8-.544 32.408 32.408 0 00-24 25.288 31.842 31.842 0 001.6 17.104 32.05 32.05 0 00-8.704 6.16 30.974 30.974 0 00-19.744.296 32.088 32.088 0 00-19.792 19.552 31.727 31.727 0 00-1.6 14.92 32.136 32.136 0 00-15.264 19.792 29.861 29.861 0 00-16.544 4.312 32.37 32.37 0 00-16.12 22.856 31.782 31.782 0 005.6 23.296 45.048 45.048 0 00-7.2 36.464l71 280.368h252.48l69.6-279.496a44.88 44.88 0 00-6.4-36.544 31.55 31.55 0 006.192-24.103zm-367.2-8.992a14.265 14.265 0 0112.976-1.168 7.999 7.999 0 0010.712-8c0-.2-.112-.8-.136-1.024a16 16 0 0111.848-15.36 8 8 0 005.328-10.704 15.633 15.633 0 01-.232-11.328 16.191 16.191 0 019.856-9.72 15.361 15.361 0 0113.008 1.264 8 8 0 0010.696-2.672 15.794 15.794 0 0112.4-7.336 8 8 0 005.344-13.392 15.8 15.8 0 01-4-13.72 16.2 16.2 0 0112.088-12.584 15.2 15.2 0 0111.488 1.704 8 8 0 0010.696-2.672c4.76-7.445 14.654-9.622 22.099-4.862a16 16 0 017.381 13.374 8 8 0 0016 0c-.008-8.81 7.128-15.958 15.938-15.966a15.952 15.952 0 0115.006 10.502 8 8 0 005.944 5.08 7.911 7.911 0 007.432-2.4 16.002 16.002 0 0113.072-5.12 16.737 16.737 0 0113.368 10.304 13.92 13.92 0 01.2 11.056 8 8 0 007.52 10.736c.352 0 1.16-.112 1.512-.152 8.837 0 16 7.163 16 16a8 8 0 008 8c8.75-.001 15.878 7.027 16 15.776 0 .2-.12 1.048-.136 1.248a8 8 0 0010.72 8 15.698 15.698 0 015.416-1.032c8.75-.001 15.878 7.027 16 15.776 0 .2-.12 1.048-.136 1.248a8.001 8.001 0 0010.712 8 14.345 14.345 0 0113.008 1.176 16.225 16.225 0 018.224 11.304 15.867 15.867 0 01-1.784 10.048l-.192-.12a44.62 44.62 0 00-5.184-3.096c-.432-.224-.864-.424-1.304-.632a44.268 44.268 0 00-5.272-2.128c-.16-.048-.304-.12-.464-.168a44.817 44.817 0 00-5.952-1.392c-.488-.08-.968-.152-1.456-.224a46.002 46.002 0 00-6.192-.488 45.16 45.16 0 00-37.6 20.216l-.104.168-.088-.16a45.183 45.183 0 00-37.648-20.224h-1.16a45.145 45.145 0 00-37.304 19.848 45.153 45.153 0 00-37.296-19.848h-2.536a45.144 45.144 0 00-37.304 19.736 45.151 45.151 0 00-37.288-19.736h-1.328a45.193 45.193 0 00-37.6 20.192 44.976 44.976 0 00-45.92-19.392c-.8.136-1.536.336-2.304.52a44.437 44.437 0 00-5.6 1.688c-.744.28-1.496.544-2.224.864a44.497 44.497 0 00-6.496 3.472c-.16.104-.344.184-.504.288l-.072.04c-1.448-2.929-1.954-6.236-1.448-9.464a16.247 16.247 0 018.272-11.344zm277.032 62.896l-10.488 70.24h-52.592l3.8-76.232a28.8 28.8 0 014.952-14.656 29.193 29.193 0 0124.256-13.112h1.16a29.234 29.234 0 0124.36 13.096 29.124 29.124 0 014.552 20.664zm-136.464-4.104c-.23-16.147 12.674-29.423 28.821-29.653.132-.002.263-.003.395-.003h2.568c9.785.02 18.91 4.94 24.304 13.104a28.944 28.944 0 014.928 17.664l-3.68 73.232h-53.392l-3.928-73.904-.016-.44zm-71.016-16.56a29.233 29.233 0 0124.352-13.096h1.328c15.924.095 28.888 12.832 29.264 28.752l.048.872v.312l3.912 74.064h-52.52l-11.2-73.68a28.85 28.85 0 014.856-17.216l-.04-.008zm-11.776 290.904L59.185 196.274c-3.587-15.818 6.328-31.549 22.146-35.136a29.367 29.367 0 0130.958 12.392 29.184 29.184 0 014.8 12.624l.936 6.136c.056 1.048.12 2.096.28 3.352l10.552 68.784v112h17.192l1.712 11.2 11.776 76.8h-32.456zm48.648 0l-8.2-53.776-5.216-34.224h41.416l4.688 88h-32.688zm81.512 0h-32.8l-4.672-88h41.888l-4.416 88zm48.72 0h-32.696l4.392-88h41.464l-13.16 88zm-27.504-104h-133.6v-80h192v80h-58.4zm142.72-163.408l-66.576 267.408h-32.456l13.16-88h17.552v-112l11.048-79.2c2.513-15.965 17.494-26.87 33.459-24.357 15.965 2.513 26.87 17.494 24.357 33.459a29.178 29.178 0 01-.552 2.682l.008.008zM88.857 56.426a31.479 31.479 0 00-2.4-12 31.479 31.479 0 002.4-12C88.902 14.802 74.651.477 57.027.432a31.914 31.914 0 00-25.298 12.354C14.056 12.936-.149 27.384.001 45.058S14.6 76.936 32.273 76.786c11.178 13.626 31.286 15.61 44.912 4.432a31.911 31.911 0 0011.672-24.792zm-45.76 8l-3.272-4.568-5.328.752c-.542.09-1.09.141-1.64.152-8.837 0-16-7.163-16-16s7.163-16 16-16c.665.038 1.328.116 1.984.232l5.424.688 2.608-4.8c4.138-7.763 13.785-10.702 21.548-6.564a15.928 15.928 0 018.436 14.108 15.685 15.685 0 01-2.24 8l-2.344 4 2.344 4a15.685 15.685 0 012.24 8c0 8.837-7.163 16-16 16a15.825 15.825 0 01-13.76-8zm437.76-16c.045-17.624-14.206-31.949-31.83-31.994a31.914 31.914 0 00-25.298 12.354c-17.673.15-31.878 14.599-31.728 32.272s14.599 31.878 32.272 31.728c11.178 13.626 31.286 15.61 44.912 4.432a31.913 31.913 0 0011.672-24.792 31.479 31.479 0 00-2.4-12 31.483 31.483 0 002.4-12zm-18.24 16a15.685 15.685 0 012.24 8c0 8.837-7.163 16-16 16a15.824 15.824 0 01-13.76-8l-3.272-4.568-5.328.752a11.53 11.53 0 01-1.648.176c-8.837 0-16-7.163-16-16s7.163-16 16-16c.665.038 1.328.116 1.984.232l5.424.688 2.608-4.8c4.129-7.767 13.774-10.717 21.541-6.587a15.929 15.929 0 018.451 14.107 15.685 15.685 0 01-2.24 8l-2.344 4 2.344 4z"/></svg>